<?xml version="1.0" encoding="UTF-8" standalone="no"?>
<!-- Created with Inkscape (http://www.inkscape.org/) -->

<svg
   width="210mm"
   height="297mm"
   viewBox="0 0 210 297"
   version="1.1"
   id="svg1"
   inkscape:version="1.3.2 (091e20e, 2023-11-25)"
   sodipodi:docname="drawing.svg"
   xmlns:inkscape="http://www.inkscape.org/namespaces/inkscape"
   xmlns:sodipodi="http://sodipodi.sourceforge.net/DTD/sodipodi-0.dtd"
   xmlns="http://www.w3.org/2000/svg"
   xmlns:svg="http://www.w3.org/2000/svg">
  <sodipodi:namedview
     id="namedview1"
     pagecolor="#ffffff"
     bordercolor="#cccccc"
     borderopacity="1"
     inkscape:showpageshadow="0"
     inkscape:pageopacity="1"
     inkscape:pagecheckerboard="0"
     inkscape:deskcolor="#d1d1d1"
     inkscape:document-units="mm"
     inkscape:zoom="0.84096521"
     inkscape:cx="415.59389"
     inkscape:cy="582.06927"
     inkscape:window-width="1920"
     inkscape:window-height="1200"
     inkscape:window-x="0"
     inkscape:window-y="0"
     inkscape:window-maximized="0"
     inkscape:current-layer="layer1" />
  <defs
     id="defs1" />
  <g
     inkscape:label="Layer 1"
     inkscape:groupmode="layer"
     id="layer1">
    <ellipse
       style="fill:#b3b3b3;fill-rule:evenodd;stroke:#000000;stroke-width:1;stroke-opacity:0.93"
       id="path1"
       ry="37.596928"
       rx="37.911545"
       cy="101.77913"
       cx="86.992058" />
    <path
       style="fill:#000080;fill-rule:evenodd;stroke:#000000;stroke-width:1;stroke-opacity:0.93"
       id="path2"
       sodipodi:type="arc"
       sodipodi:cx="88.250534"
       sodipodi:cy="102.88029"
       sodipodi:rx="11.798199"
       sodipodi:ry="12.899364"
       sodipodi:start="0"
       sodipodi:end="6.2495299"
       sodipodi:arc-type="slice"
       d="M 100.04873,102.88029 A 11.798199,12.899364 0 0 1 88.349801,115.7792 11.798199,12.899364 0 0 1 76.454006,103.09734 11.798199,12.899364 0 0 1 87.952761,89.985032 11.798199,12.899364 0 0 1 100.04205,102.44624 l -11.791516,0.43405 z" />
    <path
       style="fill:#0000ff;fill-rule:evenodd;stroke:#000000;stroke-width:1;stroke-opacity:0.93"
       id="path3"
       sodipodi:type="arc"
       sodipodi:cx="90.295555"
       sodipodi:cy="102.88029"
       sodipodi:rx="5.0338979"
       sodipodi:ry="5.6631355"
       sodipodi:start="0"
       sodipodi:end="6.2495299"
       sodipodi:arc-type="slice"
       d="m 95.329453,102.88029 a 5.0338979,5.6631355 0 0 1 -4.991544,5.66293 5.0338979,5.6631355 0 0 1 -5.075539,-5.56764 5.0338979,5.6631355 0 0 1 4.906135,-5.756624 5.0338979,5.6631355 0 0 1 5.158097,5.470774 l -5.031047,0.19056 z" />
  </g>
</svg>
